# xmcd
#
# Track frame offsets:
#	150
#	10787
#	24018
#	40234
#	55270
#	68497
#	86332
#	99730
#	112765
#	128824
#	138770
#	152608
#
# Disc length: 2185 seconds
# Revision: 0
# Processed by: cddbd v1.5.2PL0 Copyright (c) Steve Scherf et al.
# Submitted via: dBpowerAMP V12.0
#
DISCID=8108870c
DTITLE=Mickey Galyean - My Daddy's Grass
DYEAR=2016
DGENRE=Country
TTITLE0=I Found My Daddy's Grass
TTITLE1=Charming Betsy
TTITLE2=Dark As A Dungeon
TTITLE3=Mama, I Saw Jesus Last Night
TTITLE4=We'll Be Sweethearts In Heaven
TTITLE5=One Loaf Of Bread
TTITLE6=Home With The Blues
TTITLE7=Brother Paul
TTITLE8=It's A Cold Cold World
TTITLE9=Trail Blazer
TTITLE10=Please Take Care Of My Babies
TTITLE11=I'd Have A Dime
EXTD=
EXTT0=
EXTT1=
EXTT2=
EXTT3=
EXTT4=
EXTT5=
EXTT6=
EXTT7=
EXTT8=
EXTT9=
EXTT10=
EXTT11=
PLAYORDER=
